<?xml version="1.0" encoding="UTF-8" standalone="no"?>
<svg
   xmlns:dc="http://purl.org/dc/elements/1.1/"
   xmlns:cc="http://creativecommons.org/ns#"
   xmlns:rdf="http://www.w3.org/1999/02/22-rdf-syntax-ns#"
   xmlns:svg="http://www.w3.org/2000/svg"
   xmlns="http://www.w3.org/2000/svg"
   id="svg9"
   version="1.1"
   viewBox="0 0 216 96"
   height="96pt"
   width="216pt">
  <metadata
     id="metadata15">
    <rdf:RDF>
      <cc:Work
         rdf:about="">
        <dc:format>image/svg+xml</dc:format>
        <dc:type
           rdf:resource="http://purl.org/dc/dcmitype/StillImage" />
      </cc:Work>
    </rdf:RDF>
  </metadata>
  <defs
     id="defs13" />
  <g
     id="surface1">
    <path
       id="path2"
       d="M 152.808594 8.515625 L 152.808594 12.015625 L 182.757812 12.015625 C 184.753906 12.015625 187.757812 12.015625 189.757812 14.015625 C 191.757812 16.015625 191.757812 19.015625 191.757812 21.019531 L 191.757812 51.027344 C 191.757812 53.03125 191.757812 56.035156 189.757812 58.03125 C 187.757812 60.035156 184.753906 60.035156 182.757812 60.035156 L 168.285156 60.035156 C 165.789062 60.035156 162.539062 60.035156 161.289062 57.28125 C 160.054688 54.527344 161.785156 52.023438 163.292969 50.03125 L 182.757812 24.011719 L 152.808594 24.011719 L 140.820312 40.023438 C 138.8125 42.703125 137.078125 45.03125 137.078125 48.027344 C 137.078125 51.027344 138.691406 53.191406 140.820312 56.035156 L 143.8125 60.035156 C 146.8125 64.03125 149.804688 68.046875 153.804688 70.042969 C 157.804688 72.03125 162.535156 72.03125 169.039062 72.03125 L 182.007812 72.03125 C 189.503906 72.03125 200.734375 72.03125 208.234375 64.535156 C 215.71875 57.03125 215.71875 46.027344 215.71875 42.019531 L 215.71875 30.019531 C 215.71875 26.011719 215.71875 15.011719 208.234375 7.507812 C 200.734375 0 189.503906 0.0195312 182.007812 0.0117188 L 161.289062 0 C 159.300781 0 156.792969 0 154.792969 2.007812 C 152.808594 4.011719 152.808594 6.511719 152.808594 8.515625 "
       style=" stroke:none;fill-rule:nonzero;fill:rgb(85.490196%,25.882353%,8.627451%);fill-opacity:1;" />
    <path
       id="path4"
       d="M 116.851562 24.015625 L 146.816406 24.015625 L 110.851562 72.03125 L 80.894531 72.03125 Z M 116.851562 24.015625 "
       style=" stroke:none;fill-rule:nonzero;fill:rgb(85.490196%,25.882353%,8.627451%);fill-opacity:1;" />
    <path
       id="path6"
       d="M 0 32.519531 C 0 30.523438 0 28.019531 1.996094 26.011719 C 3.988281 24.015625 6.496094 24.015625 8.488281 24.015625 L 58.683594 24.015625 C 65.171875 24.015625 69.910156 24.015625 73.910156 26.011719 C 77.894531 28.019531 80.898438 32.023438 83.886719 36.023438 L 86.886719 40.023438 C 89.019531 42.863281 90.640625 45.03125 90.640625 48.027344 C 90.640625 51.027344 88.890625 53.351562 86.886719 56.035156 L 74.90625 72.03125 L 44.945312 72.03125 L 64.414062 46.027344 C 65.910156 44.023438 67.664062 41.53125 66.410156 38.773438 C 65.171875 36.023438 61.921875 36.023438 59.425781 36.023438 L 35.953125 36.023438 L 35.953125 96.054688 L 11.984375 96.054688 L 11.984375 36.023438 L 0 36.023438 L 0 32.519531 "
       style=" stroke:none;fill-rule:nonzero;fill:rgb(85.490196%,25.882353%,8.627451%);fill-opacity:1;" />
  </g>
</svg>
